<svg xmlns="http://www.w3.org/2000/svg" width="13.839" height="13.839"><script xmlns="" id="eppiocemhmnlbhjplcgkofciiegomcon"/><div xmlns="" id="in-page-channel-node-id" data-channel-name="in_page_channel_kAfobv"/><script xmlns=""/><script xmlns=""/><g data-name="Grupo 7399"><g data-name="Grupo 7394"><path data-name="Icon material-local-offer" d="M15.46,9.15,9.683,3.372A1.276,1.276,0,0,0,8.777,3H4.284A1.288,1.288,0,0,0,3,4.284V8.777a1.281,1.281,0,0,0,.379.912l5.777,5.777a1.276,1.276,0,0,0,.905.372,1.255,1.255,0,0,0,.905-.379l4.494-4.494a1.255,1.255,0,0,0,.379-.905,1.3,1.3,0,0,0-.379-.912ZM5.247,6.21a.963.963,0,1,1,.963-.963A.962.962,0,0,1,5.247,6.21Z" transform="translate(-2.5 -2.5)" fill="none" stroke="#fc9220"/></g></g></svg>